<svg version="1.2" xmlns="http://www.w3.org/2000/svg" viewBox="0 0 26 13" width="26" height="13"><defs><clipPath clipPathUnits="userSpaceOnUse" id="cp1"><path d="m23.77 9.77c-3.93-1.21-8.71-7.5-10.17-9.53q-0.08-0.11-0.2-0.17-0.12-0.07-0.25-0.07-0.14 0-0.26 0.06-0.12 0.05-0.2 0.16c-1.62 2.06-5.92 8.1-12.69 9.2 0 0 5.6 0.43 12.05-6.48q0.15-0.17 0.37-0.23 0.22-0.06 0.44 0.01 0.22 0.07 0.37 0.25 0.14 0.18 0.17 0.4c0.31 3.29 1.03 7.65 2.65 8.42 2.65 1.25 2.64-2.11 4.03-1.8 1.39 0.3 8.38 1.22 3.69-0.22z"/></clipPath></defs><style>.a{fill:#1dc5ce}.b{fill:#f26932}</style><g clip-path="url(#cp1)"><path class="a" d="m23.8 9.8c-4-1.2-8.7-7.5-10.2-9.6q-0.1-0.1-0.2-0.1-0.1-0.1-0.3-0.1-0.1 0-0.2 0.1-0.1 0-0.2 0.1c-1.6 2.1-5.9 8.1-12.7 9.2 0 0 5.6 0.5 12-6.5q0.2-0.1 0.4-0.2 0.2-0.1 0.5 0 0.2 0.1 0.3 0.3 0.2 0.1 0.2 0.4c0.3 3.3 1 7.6 2.7 8.4 2.6 1.2 2.6-2.1 4-1.8 1.4 0.3 8.4 1.2 3.7-0.2z"/><path class="b" d="m-1-1h29v16h-29z"/></g></svg>